<svg width="72" height="214" viewBox="0 0 72 214" fill="none" xmlns="http://www.w3.org/2000/svg">
<rect x="32.9541" y="27.3044" width="11.6645" height="2.33291" transform="rotate(45 32.9541 27.3044)" fill="#CACACA"/>
<rect x="31.3047" y="35.5525" width="11.6645" height="2.33291" transform="rotate(-45 31.3047 35.5525)" fill="#CACACA"/>
<circle cx="36" cy="32" r="11" stroke="#CACACA" stroke-width="2"/>
<rect x="32.9541" y="77.3044" width="11.6645" height="2.33291" transform="rotate(45 32.9541 77.3044)" fill="#FF9900"/>
<rect x="31.3047" y="85.5525" width="11.6645" height="2.33291" transform="rotate(-45 31.3047 85.5525)" fill="#FF9900"/>
<circle cx="36" cy="82" r="11" stroke="#FF9900" stroke-width="2"/>
<rect x="32.9541" y="127.304" width="11.6645" height="2.33291" transform="rotate(45 32.9541 127.304)" fill="#CACACA"/>
<rect x="31.3047" y="135.552" width="11.6645" height="2.33291" transform="rotate(-45 31.3047 135.552)" fill="#CACACA"/>
<circle cx="36" cy="132" r="11" stroke="#CACACA" stroke-width="2"/>
<rect x="21" y="117" width="30" height="30" stroke="#FF9900" stroke-width="2"/>
<rect x="32.9541" y="177.304" width="11.6645" height="2.33291" transform="rotate(45 32.9541 177.304)" fill="black"/>
<rect x="31.3047" y="185.552" width="11.6645" height="2.33291" transform="rotate(-45 31.3047 185.552)" fill="black"/>
<circle cx="36" cy="182" r="11" stroke="black" stroke-width="2"/>
<rect x="0.5" y="0.5" width="71" height="213" rx="5.5" stroke="#CACACA" stroke-dasharray="10 5"/>
</svg>
